<?xml version="1.0" encoding="UTF-8"?><svg viewBox="0 0 100 100" width="100px" height="100px" xmlns="http://www.w3.org/2000/svg" version="1.2" baseProfile="tiny"><g fill="#ebebeb"><rect x="35" y="19" width="3" height="1"/><rect y="19" width="1" height="1" x="39"/><rect width="3" height="1" x="41" y="19"/><rect x="36" y="20" width="3" height="1"/><rect y="20" width="1" height="1" x="40"/><rect x="42" y="20" width="3" height="1"/><rect y="21" width="3" height="1" x="37"/><rect x="41" y="21" width="1" height="1"/><rect height="1" x="43" y="21" width="3"/><rect y="22" width="3" height="1" x="38"/><rect x="42" y="22" width="1" height="1"/><rect y="22" width="3" height="1" x="44"/><rect x="39" y="23" width="3" height="1"/><rect x="43" y="23" width="1" height="1"/><rect x="45" y="23" width="3" height="1"/><rect y="24" width="3" height="1" x="40"/><rect width="1" height="1" x="44" y="24"/><rect y="24" width="3" height="1" x="46"/><rect x="41" y="25" width="3" height="1"/><rect width="1" height="1" x="45" y="25"/><rect x="47" y="25" width="3" height="1"/></g><g fill="#4b4b49"><rect x="43" y="34" width="2" height="28"/><rect y="34" width="2" height="13" x="57"/><rect x="42" y="35" width="4" height="12"/><rect y="35" width="3" height="12" x="56"/><rect y="36" width="1" height="26" x="46"/><rect x="54" y="36" width="5" height="11"/><rect y="37" width="1" height="25" x="47"/><rect x="48" y="38" width="1" height="24"/><rect y="38" width="6" height="9" x="53"/><rect width="8" height="8" x="51" y="39"/><rect height="7" x="38" y="40" width="11"/><rect x="37" y="41" width="12" height="6"/><rect x="50" y="41" width="15" height="6"/><rect height="3" x="49" y="44" width="16"/><rect width="5" height="15" x="37" y="47"/><rect x="45" y="47" width="12" height="15"/><rect height="15" x="58" y="47" width="7"/></g><g fill="#797979"><rect x="8" y="63" width="1" height="2"/><rect y="63" width="1" height="2" x="92"/><rect x="9" y="64" width="1" height="4"/><rect x="91" y="64" width="2" height="1"/><rect width="1" height="2" x="91" y="65"/><rect x="10" y="66" width="1" height="5"/><rect x="90" y="66" width="2" height="1"/><rect height="2" x="89" y="67" width="2"/><rect y="68" width="1" height="5" x="11"/><rect width="1" height="6" x="12" y="69"/><rect x="88" y="69" width="2" height="2"/><rect y="71" width="1" height="6" x="13"/><rect y="71" width="2" height="2" x="87"/><rect x="86" y="72" width="3" height="1"/><rect x="14" y="73" width="1" height="5"/><rect x="85" y="73" width="3" height="1"/><rect width="1" height="5" x="15" y="74"/><rect y="74" width="3" height="2" x="84"/><rect width="4" height="1" x="83" y="75"/><rect y="76" width="1" height="5" x="16"/><rect width="4" height="1" x="82" y="76"/><rect x="17" y="77" width="1" height="5"/><rect y="77" width="4" height="1" x="81"/><rect y="78" width="1" height="5" x="18"/><rect y="78" width="4" height="1" x="80"/><rect y="79" width="1" height="5" x="19"/><rect x="78" y="79" width="5" height="1"/><rect y="80" width="1" height="5" x="20"/><rect x="77" y="80" width="5" height="1"/><rect width="1" height="5" x="21" y="81"/><rect height="1" x="76" y="81" width="5"/><rect height="5" x="22" y="82" width="1"/><rect x="74" y="82" width="6" height="1"/><rect x="23" y="83" width="2" height="5"/><rect x="73" y="83" width="6" height="1"/><rect x="25" y="84" width="2" height="6"/><rect height="1" x="71" y="84" width="7"/><rect x="27" y="85" width="2" height="7"/><rect width="8" height="1" x="69" y="85"/><rect height="7" x="29" y="86" width="2"/><rect height="1" x="67" y="86" width="9"/><rect y="87" width="1" height="7" x="31"/><rect y="87" width="10" height="1" x="65"/><rect x="24" y="88" width="12" height="1"/><rect height="1" x="62" y="88" width="12"/><rect x="32" y="89" width="8" height="6"/><rect y="89" width="15" height="1" x="58"/><rect x="26" y="90" width="18" height="1"/><rect width="18" height="1" x="54" y="90"/><rect y="91" width="30" height="1" x="40"/><rect x="28" y="92" width="41" height="1"/><rect height="1" x="30" y="93" width="36"/><rect width="24" height="1" x="40" y="94"/><rect y="95" width="26" height="1" x="35"/><rect width="20" height="1" x="38" y="96"/><rect x="42" y="97" width="12" height="1"/></g><g fill="#c8c8c8"><rect y="63" width="81" height="1" x="10"/><rect x="11" y="64" width="2" height="2"/><rect x="14" y="64" width="6" height="6"/><rect width="15" height="2" x="22" y="64"/><rect height="1" x="39" y="64" width="26"/><rect width="18" height="3" x="66" y="64"/><rect x="85" y="64" width="5" height="2"/><rect y="65" width="7" height="4" x="13"/><rect height="6" x="39" y="65" width="10"/><rect height="1" x="50" y="65" width="40"/><rect x="12" y="66" width="19" height="2"/><rect x="32" y="66" width="57" height="1"/><rect width="25" height="4" x="31" y="67"/><rect width="12" height="5" x="58" y="67"/><rect x="72" y="67" width="16" height="1"/><rect y="68" width="36" height="3" x="20"/><rect width="5" height="8" x="72" y="68"/><rect x="79" y="68" width="9" height="1"/><rect x="56" y="69" width="21" height="3"/><rect x="79" y="69" width="8" height="2"/><rect y="70" width="3" height="1" x="14"/><rect height="1" x="19" y="70" width="68"/><rect height="2" x="15" y="71" width="2"/><rect width="6" height="7" x="19" y="71"/><rect x="27" y="71" width="17" height="1"/><rect x="46" y="71" width="40" height="1"/><rect x="17" y="72" width="8" height="4"/><rect x="27" y="72" width="9" height="8"/><rect x="38" y="72" width="6" height="12"/><rect width="14" height="6" x="46" y="72"/><rect width="24" height="1" x="61" y="72"/><rect y="73" width="20" height="1" x="16"/><rect x="44" y="73" width="40" height="1"/><rect width="40" height="4" x="25" y="74"/><rect x="68" y="74" width="15" height="1"/><rect width="14" height="1" x="68" y="75"/><rect x="18" y="76" width="57" height="1"/><rect y="76" width="5" height="1" x="76"/><rect y="77" width="15" height="1" x="65"/><rect y="78" width="27" height="1" x="20"/><rect width="6" height="12" x="48" y="78"/><rect x="56" y="78" width="22" height="1"/><rect x="21" y="79" width="33" height="1"/><rect height="1" x="56" y="79" width="21"/><rect width="9" height="1" x="22" y="80"/><rect y="80" width="22" height="4" x="32"/><rect width="20" height="1" x="56" y="80"/><rect height="1" x="23" y="81" width="43"/><rect x="68" y="81" width="6" height="1"/><rect y="82" width="41" height="1" x="25"/><rect y="82" width="5" height="1" x="68"/><rect height="1" x="27" y="83" width="44"/><rect height="1" x="29" y="84" width="13"/><rect y="84" width="25" height="1" x="44"/><rect height="1" x="31" y="85" width="11"/><rect height="1" x="44" y="85" width="23"/><rect x="32" y="86" width="23" height="1"/><rect y="86" width="9" height="1" x="56"/><rect y="87" width="26" height="1" x="36"/><rect x="40" y="88" width="18" height="1"/><rect y="89" width="10" height="1" x="44"/></g><g fill="#4a4a4a"><rect y="64" width="1" height="1" x="13"/><rect x="20" y="64" width="2" height="2"/><rect width="2" height="2" x="37" y="64"/><rect x="65" y="64" width="1" height="1"/><rect width="1" height="1" x="84" y="64"/><rect height="1" x="49" y="65" width="1"/><rect y="66" width="1" height="1" x="31"/><rect height="2" x="56" y="67" width="2"/><rect height="2" x="70" y="67" width="2"/><rect width="2" height="2" x="77" y="68"/><rect y="70" width="2" height="2" x="17"/><rect x="25" y="71" width="2" height="2"/><rect y="71" width="2" height="2" x="44"/><rect height="2" x="36" y="72" width="2"/><rect y="72" width="1" height="1" x="60"/><rect x="65" y="74" width="3" height="2"/><rect width="1" height="1" x="75" y="76"/><rect width="1" height="1" x="47" y="78"/><rect width="2" height="3" x="54" y="78"/><rect width="1" height="1" x="31" y="80"/><rect x="66" y="81" width="2" height="2"/><rect x="42" y="84" width="2" height="2"/><rect height="1" x="55" y="86" width="1"/></g><g fill="#000000"><rect x="33" y="1" width="5" height="1"/><rect x="66" y="1" width="5" height="1"/><rect x="32" y="2" width="1" height="1"/><rect height="1" x="38" y="2" width="1"/><rect height="1" x="65" y="2" width="1"/><rect width="1" height="1" x="71" y="2"/><rect x="31" y="3" width="1" height="1"/><rect height="5" x="39" y="3" width="1"/><rect x="64" y="3" width="1" height="1"/><rect x="72" y="3" width="1" height="4"/><rect x="30" y="4" width="1" height="5"/><rect x="47" y="4" width="12" height="1"/><rect x="63" y="4" width="1" height="3"/><rect height="1" x="43" y="5" width="4"/><rect height="1" x="59" y="5" width="5"/><rect x="42" y="6" width="1" height="1"/><rect x="40" y="7" width="2" height="1"/><rect x="64" y="7" width="1" height="1"/><rect x="71" y="7" width="1" height="1"/><rect width="1" height="1" x="38" y="8"/><rect y="8" width="1" height="1" x="65"/><rect width="1" height="1" x="70" y="8"/><rect width="1" height="2" x="31" y="9"/><rect x="37" y="9" width="1" height="1"/><rect y="9" width="2" height="1" x="66"/><rect height="1" x="69" y="9" width="1"/><rect x="36" y="10" width="1" height="1"/><rect x="68" y="10" width="1" height="1"/><rect y="11" width="4" height="1" x="32"/><rect y="11" width="1" height="1" x="69"/><rect height="1" x="34" y="12" width="1"/><rect width="1" height="1" x="70" y="12"/><rect width="1" height="1" x="33" y="13"/><rect width="1" height="1" x="71" y="13"/><rect width="1" height="2" x="32" y="14"/><rect y="14" width="1" height="2" x="72"/><rect x="31" y="15" width="43" height="1"/><rect x="31" y="16" width="1" height="18"/><rect x="73" y="16" width="1" height="18"/><rect height="7" x="28" y="19" width="7"/><rect width="1" height="1" x="38" y="19"/><rect x="40" y="19" width="1" height="1"/><rect width="33" height="1" x="44" y="19"/><rect height="6" x="35" y="20" width="1"/><rect x="39" y="20" width="1" height="1"/><rect y="20" width="1" height="1" x="41"/><rect height="1" x="45" y="20" width="32"/><rect y="21" width="1" height="5" x="36"/><rect x="40" y="21" width="1" height="1"/><rect y="21" width="1" height="1" x="42"/><rect y="21" width="31" height="1" x="46"/><rect x="37" y="22" width="1" height="4"/><rect y="22" width="1" height="1" x="41"/><rect y="22" width="1" height="1" x="43"/><rect width="30" height="1" x="47" y="22"/><rect x="38" y="23" width="1" height="3"/><rect height="1" x="42" y="23" width="1"/><rect x="44" y="23" width="1" height="1"/><rect x="48" y="23" width="29" height="1"/><rect x="39" y="24" width="1" height="2"/><rect x="43" y="24" width="1" height="1"/><rect height="1" x="45" y="24" width="1"/><rect height="1" x="49" y="24" width="28"/><rect x="40" y="25" width="1" height="1"/><rect x="44" y="25" width="1" height="1"/><rect height="1" x="46" y="25" width="1"/><rect y="25" width="27" height="1" x="50"/><rect height="1" x="45" y="29" width="15"/><rect y="33" width="42" height="1" x="32"/><rect y="34" width="1" height="1" x="42"/><rect x="45" y="34" width="1" height="1"/><rect x="56" y="34" width="1" height="1"/><rect width="1" height="7" x="59" y="34"/><rect height="5" x="41" y="35" width="1"/><rect width="2" height="1" x="46" y="35"/><rect x="54" y="35" width="2" height="1"/><rect width="1" height="1" x="47" y="36"/><rect x="53" y="36" width="1" height="2"/><rect x="48" y="37" width="1" height="1"/><rect x="49" y="38" width="1" height="6"/><rect width="2" height="1" x="51" y="38"/><rect x="37" y="39" width="5" height="1"/><rect x="50" y="39" width="1" height="2"/><rect width="2" height="1" x="36" y="40"/><rect width="5" height="1" x="60" y="40"/><rect y="41" width="1" height="22" x="36"/><rect y="41" width="1" height="22" x="65"/><rect height="16" x="42" y="47" width="1"/><rect height="16" x="57" y="47" width="1"/><rect x="7" y="62" width="87" height="1"/><rect height="2" x="7" y="63" width="1"/><rect x="9" y="63" width="1" height="1"/><rect y="63" width="1" height="1" x="91"/><rect height="2" x="93" y="63" width="1"/><rect y="64" width="1" height="2" x="10"/><rect height="2" x="90" y="64" width="1"/><rect x="8" y="65" width="1" height="3"/><rect width="1" height="2" x="92" y="65"/><rect x="11" y="66" width="1" height="2"/><rect x="89" y="66" width="1" height="1"/><rect x="88" y="67" width="1" height="2"/><rect height="2" x="91" y="67" width="1"/><rect y="68" width="1" height="3" x="9"/><rect width="1" height="1" x="12" y="68"/><rect y="69" width="1" height="2" x="13"/><rect x="87" y="69" width="1" height="2"/><rect y="69" width="1" height="2" x="90"/><rect width="1" height="2" x="10" y="71"/><rect y="71" width="1" height="2" x="14"/><rect height="1" x="86" y="71" width="1"/><rect height="2" x="89" y="71" width="1"/><rect width="1" height="1" x="85" y="72"/><rect x="11" y="73" width="1" height="2"/><rect height="1" x="15" y="73" width="1"/><rect x="84" y="73" width="1" height="1"/><rect y="73" width="1" height="1" x="88"/><rect width="1" height="2" x="16" y="74"/><rect width="1" height="1" x="83" y="74"/><rect x="87" y="74" width="1" height="2"/><rect width="1" height="2" x="12" y="75"/><rect width="1" height="1" x="82" y="75"/><rect x="17" y="76" width="1" height="1"/><rect x="81" y="76" width="1" height="1"/><rect x="86" y="76" width="1" height="1"/><rect x="13" y="77" width="1" height="1"/><rect width="1" height="1" x="18" y="77"/><rect height="1" x="80" y="77" width="1"/><rect x="85" y="77" width="1" height="1"/><rect width="1" height="1" x="14" y="78"/><rect height="1" x="19" y="78" width="1"/><rect y="78" width="2" height="1" x="78"/><rect y="78" width="1" height="1" x="84"/><rect y="79" width="1" height="2" x="15"/><rect x="20" y="79" width="1" height="1"/><rect height="1" x="77" y="79" width="1"/><rect x="83" y="79" width="1" height="1"/><rect x="21" y="80" width="1" height="1"/><rect x="76" y="80" width="1" height="1"/><rect x="82" y="80" width="1" height="1"/><rect x="16" y="81" width="1" height="1"/><rect y="81" width="1" height="1" x="22"/><rect y="81" width="2" height="1" x="74"/><rect width="1" height="1" x="81" y="81"/><rect height="1" x="17" y="82" width="1"/><rect y="82" width="2" height="1" x="23"/><rect x="73" y="82" width="1" height="1"/><rect y="82" width="1" height="1" x="80"/><rect y="83" width="1" height="1" x="18"/><rect width="2" height="1" x="25" y="83"/><rect x="71" y="83" width="2" height="1"/><rect height="1" x="79" y="83" width="1"/><rect height="1" x="19" y="84" width="1"/><rect x="27" y="84" width="2" height="1"/><rect x="69" y="84" width="2" height="1"/><rect x="78" y="84" width="1" height="1"/><rect width="1" height="1" x="20" y="85"/><rect width="2" height="1" x="29" y="85"/><rect y="85" width="2" height="1" x="67"/><rect height="1" x="77" y="85" width="1"/><rect height="1" x="21" y="86" width="1"/><rect x="31" y="86" width="1" height="1"/><rect x="65" y="86" width="2" height="1"/><rect height="1" x="76" y="86" width="1"/><rect x="22" y="87" width="1" height="1"/><rect x="32" y="87" width="4" height="1"/><rect x="62" y="87" width="3" height="1"/><rect y="87" width="1" height="1" x="75"/><rect height="1" x="23" y="88" width="1"/><rect x="36" y="88" width="4" height="1"/><rect width="4" height="1" x="58" y="88"/><rect width="1" height="1" x="74" y="88"/><rect y="89" width="1" height="1" x="24"/><rect x="40" y="89" width="4" height="1"/><rect x="54" y="89" width="4" height="1"/><rect y="89" width="1" height="1" x="73"/><rect x="25" y="90" width="1" height="1"/><rect height="1" x="44" y="90" width="10"/><rect width="1" height="1" x="72" y="90"/><rect x="26" y="91" width="1" height="1"/><rect x="70" y="91" width="2" height="1"/><rect width="1" height="1" x="27" y="92"/><rect x="69" y="92" width="1" height="1"/><rect x="28" y="93" width="2" height="1"/><rect x="66" y="93" width="3" height="1"/><rect x="30" y="94" width="2" height="1"/><rect x="64" y="94" width="2" height="1"/><rect width="3" height="1" x="32" y="95"/><rect x="61" y="95" width="3" height="1"/><rect height="1" x="35" y="96" width="3"/><rect y="96" width="3" height="1" x="58"/><rect x="38" y="97" width="4" height="1"/><rect height="1" x="54" y="97" width="4"/><rect x="42" y="98" width="12" height="1"/></g><g fill="#cfcfcf"><rect height="7" x="33" y="2" width="5"/><rect x="66" y="2" width="5" height="6"/><rect x="32" y="3" width="7" height="5"/><rect y="3" width="7" height="4" x="65"/><rect x="31" y="4" width="8" height="4"/><rect x="64" y="4" width="8" height="3"/><rect height="10" x="47" y="5" width="12"/><rect x="43" y="6" width="20" height="9"/><rect y="7" width="22" height="8" x="42"/><rect x="65" y="7" width="6" height="1"/><rect height="1" x="31" y="8" width="7"/><rect height="7" x="39" y="8" width="26"/><rect x="66" y="8" width="4" height="1"/><rect x="32" y="9" width="5" height="1"/><rect y="9" width="28" height="6" x="38"/><rect x="68" y="9" width="1" height="1"/><rect width="4" height="1" x="32" y="10"/><rect height="5" x="37" y="10" width="31"/><rect height="4" x="36" y="11" width="33"/><rect x="35" y="12" width="35" height="3"/><rect width="37" height="2" x="34" y="13"/><rect y="14" width="39" height="1" x="33"/></g><g fill="#b3b3b3"><rect width="41" height="3" x="32" y="16"/><rect width="41" height="3" x="32" y="26"/><rect width="13" height="4" x="32" y="29"/><rect y="29" width="13" height="4" x="60"/><rect y="30" width="28" height="3" x="45"/><rect width="10" height="1" x="46" y="34"/><rect width="6" height="1" x="48" y="35"/><rect width="5" height="1" x="48" y="36"/><rect height="1" x="49" y="37" width="4"/><rect x="50" y="38" width="1" height="1"/></g></svg>