<?xml version="1.0" encoding="UTF-8"?><svg baseProfile="tiny" viewBox="0 0 100 100" width="100px" height="100px" xmlns="http://www.w3.org/2000/svg" version="1.2"><g fill="#000"><rect height="1" x="34" y="26" width="33"/><rect height="2" x="34" y="27" width="1"/><rect x="66" y="27" width="1" height="2"/><rect width="1" height="7" x="34" y="34"/><rect height="7" x="66" y="34" width="1"/><rect x="45" y="37" width="11" height="1"/><rect width="32" height="1" x="35" y="40"/><rect x="43" y="41" width="1" height="4"/><rect x="54" y="41" width="1" height="4"/></g><g fill="#bbb"><rect x="35" y="27" width="31" height="2"/><rect height="3" x="35" y="34" width="31"/><rect x="35" y="37" width="10" height="3"/><rect x="56" y="37" width="10" height="3"/><rect x="45" y="38" width="21" height="2"/><rect width="10" height="4" x="44" y="41"/></g><g fill="#797979"><rect x="31" y="29" width="6" height="5"/><rect y="29" width="1" height="1" x="39"/><rect x="41" y="29" width="1" height="1"/><rect height="1" x="44" y="29" width="26"/><rect width="1" height="4" x="37" y="30"/><rect x="40" y="30" width="1" height="1"/><rect y="30" width="1" height="1" x="42"/><rect height="1" x="45" y="30" width="25"/><rect x="38" y="31" width="1" height="3"/><rect y="31" width="1" height="1" x="41"/><rect width="1" height="1" x="43" y="31"/><rect x="46" y="31" width="24" height="1"/><rect y="32" width="1" height="2" x="39"/><rect x="42" y="32" width="1" height="1"/><rect x="44" y="32" width="1" height="1"/><rect height="1" x="47" y="32" width="23"/><rect x="40" y="33" width="1" height="1"/><rect width="1" height="1" x="43" y="33"/><rect x="45" y="33" width="1" height="1"/><rect x="48" y="33" width="22" height="1"/></g><g fill="#fff"><rect height="1" x="37" y="29" width="2"/><rect width="1" height="1" x="40" y="29"/><rect height="1" x="42" y="29" width="2"/><rect x="38" y="30" width="2" height="1"/><rect width="1" height="1" x="41" y="30"/><rect y="30" width="2" height="1" x="43"/><rect x="39" y="31" width="2" height="1"/><rect width="1" height="1" x="42" y="31"/><rect x="44" y="31" width="2" height="1"/><rect height="1" x="40" y="32" width="2"/><rect x="43" y="32" width="1" height="1"/><rect height="1" x="45" y="32" width="2"/><rect x="41" y="33" width="2" height="1"/><rect x="44" y="33" width="1" height="1"/><rect y="33" width="2" height="1" x="46"/></g></svg>