<?xml version="1.0" encoding="UTF-8"?><svg viewBox="0 0 100 100" width="100px" height="100px" xmlns="http://www.w3.org/2000/svg" version="1.2" baseProfile="tiny"><g fill="#797979"><rect height="2" x="17" y="62" width="2"/><rect y="62" width="1" height="1" x="80"/><rect x="79" y="63" width="1" height="2"/><rect y="64" width="1" height="2" x="18"/><rect height="1" x="78" y="64" width="2"/><rect y="65" width="1" height="4" x="19"/><rect width="1" height="2" x="78" y="65"/><rect x="77" y="66" width="2" height="1"/><rect x="77" y="67" width="1" height="2"/><rect x="20" y="68" width="1" height="3"/><rect height="1" x="76" y="68" width="2"/><rect y="69" width="2" height="1" x="75"/><rect x="21" y="70" width="1" height="3"/><rect y="70" width="2" height="2" x="74"/><rect y="71" width="1" height="3" x="22"/><rect x="73" y="72" width="2" height="1"/><rect x="23" y="73" width="1" height="3"/><rect height="1" x="72" y="73" width="2"/><rect height="3" x="24" y="74" width="1"/><rect height="1" x="71" y="74" width="2"/><rect height="3" x="25" y="75" width="1"/><rect x="69" y="75" width="3" height="1"/><rect x="26" y="76" width="1" height="3"/><rect x="68" y="76" width="3" height="1"/><rect y="77" width="1" height="3" x="27"/><rect height="1" x="67" y="77" width="3"/><rect width="2" height="3" x="28" y="78"/><rect height="1" x="66" y="78" width="3"/><rect x="30" y="79" width="2" height="4"/><rect width="5" height="1" x="63" y="79"/><rect x="32" y="80" width="2" height="4"/><rect y="80" width="6" height="1" x="61"/><rect width="9" height="1" x="29" y="81"/><rect x="58" y="81" width="8" height="1"/><rect x="34" y="82" width="7" height="3"/><rect x="55" y="82" width="10" height="1"/><rect x="31" y="83" width="13" height="1"/><rect width="12" height="1" x="51" y="83"/><rect height="1" x="33" y="84" width="28"/><rect width="24" height="1" x="35" y="85"/><rect height="1" x="37" y="86" width="20"/><rect height="1" x="40" y="87" width="14"/></g><g fill="#c8c8c8"><rect width="59" height="1" x="20" y="62"/><rect width="1" height="2" x="20" y="63"/><rect x="22" y="63" width="4" height="4"/><rect x="28" y="63" width="11" height="1"/><rect x="40" y="63" width="19" height="1"/><rect y="63" width="13" height="2" x="61"/><rect x="75" y="63" width="3" height="1"/><rect x="21" y="64" width="13" height="3"/><rect y="64" width="4" height="5" x="35"/><rect width="8" height="4" x="40" y="64"/><rect y="64" width="28" height="1" x="49"/><rect x="39" y="65" width="14" height="3"/><rect x="55" y="65" width="9" height="4"/><rect x="65" y="65" width="12" height="1"/><rect height="2" x="34" y="66" width="19"/><rect y="66" width="4" height="6" x="65"/><rect y="66" width="5" height="2" x="71"/><rect x="21" y="67" width="3" height="1"/><rect x="26" y="67" width="43" height="1"/><rect x="22" y="68" width="2" height="2"/><rect y="68" width="4" height="7" x="26"/><rect y="68" width="13" height="1" x="31"/><rect x="46" y="68" width="29" height="1"/><rect x="24" y="69" width="6" height="4"/><rect x="31" y="69" width="7" height="6"/><rect y="69" width="16" height="4" x="40"/><rect height="1" x="57" y="69" width="17"/><rect x="23" y="70" width="15" height="1"/><rect x="56" y="70" width="4" height="10"/><rect x="62" y="70" width="11" height="2"/><rect x="30" y="71" width="30" height="2"/><rect x="60" y="72" width="7" height="4"/><rect x="68" y="72" width="4" height="1"/><rect y="73" width="21" height="1" x="25"/><rect height="10" x="47" y="73" width="4"/><rect y="73" width="18" height="1" x="53"/><rect y="74" width="16" height="1" x="30"/><rect x="53" y="74" width="16" height="1"/><rect y="75" width="7" height="1" x="27"/><rect x="35" y="75" width="16" height="3"/><rect height="1" x="53" y="75" width="15"/><rect y="76" width="32" height="1" x="28"/><rect x="62" y="76" width="4" height="2"/><rect y="77" width="36" height="1" x="30"/><rect width="10" height="1" x="32" y="78"/><rect x="44" y="78" width="19" height="1"/><rect width="8" height="1" x="34" y="79"/><rect y="79" width="8" height="3" x="44"/><rect x="53" y="79" width="8" height="1"/><rect x="38" y="80" width="20" height="1"/><rect y="81" width="14" height="1" x="41"/><rect x="44" y="82" width="7" height="1"/></g><g fill="#757575"><rect x="21" y="63" width="1" height="1"/><rect x="26" y="63" width="2" height="1"/><rect x="39" y="63" width="1" height="2"/><rect width="2" height="1" x="59" y="63"/><rect x="74" y="63" width="1" height="1"/><rect height="2" x="34" y="64" width="1"/><rect x="48" y="64" width="1" height="1"/><rect x="53" y="65" width="2" height="2"/><rect y="65" width="1" height="2" x="64"/><rect height="2" x="69" y="66" width="2"/><rect height="2" x="24" y="67" width="2"/><rect x="30" y="68" width="1" height="2"/><rect height="1" x="44" y="68" width="2"/><rect height="2" x="38" y="69" width="2"/><rect x="56" y="69" width="1" height="1"/><rect y="70" width="2" height="2" x="60"/><rect width="1" height="1" x="67" y="72"/><rect x="46" y="73" width="1" height="2"/><rect x="51" y="73" width="2" height="3"/><rect x="34" y="75" width="1" height="1"/><rect y="76" width="2" height="1" x="60"/><rect height="2" x="42" y="78" width="2"/><rect width="1" height="1" x="52" y="79"/></g><g fill="#000000"><rect y="41" width="1" height="4" x="42"/><rect x="45" y="41" width="1" height="1"/><rect x="52" y="41" width="1" height="1"/><rect x="55" y="41" width="1" height="5"/><rect height="1" x="46" y="42" width="1"/><rect height="2" x="51" y="42" width="1"/><rect height="2" x="47" y="43" width="1"/><rect width="4" height="1" x="39" y="44"/><rect width="1" height="1" x="50" y="44"/><rect x="38" y="45" width="1" height="17"/><rect x="48" y="45" width="2" height="1"/><rect height="1" x="56" y="45" width="4"/><rect x="48" y="46" width="1" height="2"/><rect x="59" y="46" width="1" height="16"/><rect width="1" height="12" x="42" y="50"/><rect x="54" y="50" width="1" height="12"/><rect width="64" height="1" x="17" y="61"/><rect y="62" width="1" height="2" x="16"/><rect y="62" width="1" height="3" x="19"/><rect y="62" width="1" height="1" x="79"/><rect y="62" width="1" height="1" x="81"/><rect y="63" width="1" height="1" x="78"/><rect width="1" height="2" x="80" y="63"/><rect x="17" y="64" width="1" height="2"/><rect width="1" height="2" x="77" y="64"/><rect x="20" y="65" width="1" height="3"/><rect height="2" x="79" y="65" width="1"/><rect x="18" y="66" width="1" height="3"/><rect x="76" y="66" width="1" height="2"/><rect width="1" height="2" x="78" y="67"/><rect height="2" x="21" y="68" width="1"/><rect x="75" y="68" width="1" height="1"/><rect height="2" x="19" y="69" width="1"/><rect x="74" y="69" width="1" height="1"/><rect y="69" width="1" height="1" x="77"/><rect height="1" x="22" y="70" width="1"/><rect x="73" y="70" width="1" height="2"/><rect x="76" y="70" width="1" height="2"/><rect x="20" y="71" width="1" height="2"/><rect x="23" y="71" width="1" height="2"/><rect width="1" height="1" x="72" y="72"/><rect width="1" height="1" x="75" y="72"/><rect height="1" x="21" y="73" width="1"/><rect width="1" height="1" x="24" y="73"/><rect height="1" x="71" y="73" width="1"/><rect width="1" height="1" x="74" y="73"/><rect x="22" y="74" width="1" height="2"/><rect height="1" x="25" y="74" width="1"/><rect y="74" width="2" height="1" x="69"/><rect width="1" height="1" x="73" y="74"/><rect x="26" y="75" width="1" height="1"/><rect y="75" width="1" height="1" x="68"/><rect x="72" y="75" width="1" height="1"/><rect x="23" y="76" width="1" height="1"/><rect width="1" height="1" x="27" y="76"/><rect y="76" width="2" height="1" x="66"/><rect height="1" x="71" y="76" width="1"/><rect x="24" y="77" width="1" height="1"/><rect width="2" height="1" x="28" y="77"/><rect width="1" height="1" x="66" y="77"/><rect x="70" y="77" width="1" height="1"/><rect y="78" width="1" height="1" x="25"/><rect x="30" y="78" width="2" height="1"/><rect x="63" y="78" width="3" height="1"/><rect width="1" height="1" x="69" y="78"/><rect width="1" height="1" x="26" y="79"/><rect x="32" y="79" width="2" height="1"/><rect y="79" width="2" height="1" x="61"/><rect y="79" width="1" height="1" x="68"/><rect height="1" x="27" y="80" width="1"/><rect x="34" y="80" width="4" height="1"/><rect height="1" x="58" y="80" width="3"/><rect y="80" width="1" height="1" x="67"/><rect x="28" y="81" width="1" height="1"/><rect x="38" y="81" width="3" height="1"/><rect x="55" y="81" width="3" height="1"/><rect y="81" width="1" height="1" x="66"/><rect height="1" x="29" y="82" width="1"/><rect x="41" y="82" width="3" height="1"/><rect x="51" y="82" width="4" height="1"/><rect x="65" y="82" width="1" height="1"/><rect width="1" height="1" x="30" y="83"/><rect y="83" width="7" height="1" x="44"/><rect x="63" y="83" width="2" height="1"/><rect x="31" y="84" width="2" height="1"/><rect width="2" height="1" x="61" y="84"/><rect y="85" width="2" height="1" x="33"/><rect x="59" y="85" width="2" height="1"/><rect x="35" y="86" width="2" height="1"/><rect x="57" y="86" width="2" height="1"/><rect width="3" height="1" x="37" y="87"/><rect x="54" y="87" width="3" height="1"/><rect x="40" y="88" width="14" height="1"/></g><g fill="#4b4b49"><rect x="43" y="41" width="2" height="20"/><rect x="53" y="41" width="2" height="9"/><rect x="45" y="42" width="1" height="19"/><rect height="8" x="52" y="42" width="3"/><rect height="18" x="46" y="43" width="1"/><rect x="51" y="44" width="4" height="6"/><rect height="5" x="39" y="45" width="9"/><rect y="45" width="5" height="5" x="50"/><rect x="49" y="46" width="10" height="4"/><rect x="48" y="48" width="11" height="2"/><rect x="39" y="50" width="3" height="11"/><rect x="47" y="50" width="7" height="11"/><rect x="55" y="50" width="4" height="11"/></g></svg>