<?xml version="1.0" encoding="UTF-8"?><svg width="100px" height="100px" xmlns="http://www.w3.org/2000/svg" version="1.2" baseProfile="tiny" viewBox="0 0 100 100"><g fill="#000000"><rect x="35" y="16" width="4" height="1"/><rect x="60" y="16" width="4" height="1"/><rect height="2" x="34" y="17" width="1"/><rect width="1" height="1" x="39" y="17"/><rect height="1" x="59" y="17" width="1"/><rect y="17" width="1" height="1" x="64"/><rect width="1" height="3" x="40" y="18"/><rect height="1" x="47" y="18" width="8"/><rect height="2" x="58" y="18" width="1"/><rect x="65" y="18" width="1" height="2"/><rect x="33" y="19" width="1" height="2"/><rect x="43" y="19" width="4" height="1"/><rect height="1" x="55" y="19" width="4"/><rect width="2" height="1" x="41" y="20"/><rect x="59" y="20" width="1" height="1"/><rect height="1" x="64" y="20" width="1"/><rect height="2" x="34" y="21" width="1"/><rect x="39" y="21" width="1" height="1"/><rect height="1" x="60" y="21" width="1"/><rect height="1" x="63" y="21" width="1"/><rect x="38" y="22" width="1" height="2"/><rect x="61" y="22" width="2" height="1"/><rect height="1" x="35" y="23" width="4"/><rect y="23" width="1" height="1" x="62"/><rect x="37" y="24" width="1" height="1"/><rect x="63" y="24" width="1" height="1"/><rect height="1" x="36" y="25" width="1"/><rect height="1" x="64" y="25" width="1"/></g><g fill="#cfcfcf"><rect x="35" y="17" width="4" height="5"/><rect x="60" y="17" width="4" height="4"/><rect x="39" y="18" width="1" height="3"/><rect y="18" width="6" height="2" x="59"/><rect x="34" y="19" width="6" height="2"/><rect width="8" height="7" x="47" y="19"/><rect width="16" height="6" x="43" y="20"/><rect height="5" x="40" y="21" width="20"/><rect width="2" height="1" x="61" y="21"/><rect height="1" x="35" y="22" width="3"/><rect x="39" y="22" width="22" height="4"/><rect x="61" y="23" width="1" height="3"/><rect y="24" width="25" height="2" x="38"/><rect x="37" y="25" width="27" height="1"/></g></svg>