<?xml version="1.0" encoding="UTF-8"?><svg xmlns="http://www.w3.org/2000/svg" version="1.2" baseProfile="tiny" viewBox="0 0 100 100" width="100px" height="100px"><g fill="#ebebeb"><rect x="35" y="19" width="3" height="1"/><rect height="1" x="39" y="19" width="1"/><rect height="1" x="41" y="19" width="3"/><rect x="36" y="20" width="3" height="1"/><rect x="40" y="20" width="1" height="1"/><rect y="20" width="3" height="1" x="42"/><rect width="3" height="1" x="37" y="21"/><rect y="21" width="1" height="1" x="41"/><rect x="43" y="21" width="3" height="1"/><rect x="38" y="22" width="3" height="1"/><rect width="1" height="1" x="42" y="22"/><rect y="22" width="3" height="1" x="44"/><rect y="23" width="3" height="1" x="39"/><rect height="1" x="43" y="23" width="1"/><rect y="23" width="3" height="1" x="45"/><rect x="40" y="24" width="3" height="1"/><rect x="44" y="24" width="1" height="1"/><rect x="46" y="24" width="3" height="1"/><rect width="3" height="1" x="41" y="25"/><rect x="45" y="25" width="1" height="1"/><rect height="1" x="47" y="25" width="3"/></g><g fill="#4b4b49"><rect x="43" y="34" width="2" height="27"/><rect y="34" width="2" height="13" x="57"/><rect y="35" width="4" height="12" x="42"/><rect height="12" x="56" y="35" width="3"/><rect height="25" x="46" y="36" width="1"/><rect x="54" y="36" width="5" height="11"/><rect x="47" y="37" width="1" height="24"/><rect y="38" width="1" height="23" x="48"/><rect x="53" y="38" width="6" height="9"/><rect x="51" y="39" width="8" height="8"/><rect width="11" height="7" x="38" y="40"/><rect x="37" y="41" width="12" height="6"/><rect height="6" x="50" y="41" width="15"/><rect x="49" y="44" width="16" height="3"/><rect width="5" height="14" x="37" y="47"/><rect x="45" y="47" width="12" height="14"/><rect x="58" y="47" width="7" height="14"/></g><rect height="38" x="4" y="61" fill="#797979" width="92"/><g fill="#000"><rect height="1" x="33" y="1" width="5"/><rect x="66" y="1" width="5" height="1"/><rect height="1" x="32" y="2" width="1"/><rect y="2" width="1" height="1" x="38"/><rect x="65" y="2" width="1" height="1"/><rect y="2" width="1" height="1" x="71"/><rect y="3" width="1" height="1" x="31"/><rect x="39" y="3" width="1" height="5"/><rect width="1" height="1" x="64" y="3"/><rect x="72" y="3" width="1" height="4"/><rect x="30" y="4" width="1" height="5"/><rect height="1" x="47" y="4" width="12"/><rect y="4" width="1" height="3" x="63"/><rect y="5" width="4" height="1" x="43"/><rect x="59" y="5" width="5" height="1"/><rect x="42" y="6" width="1" height="1"/><rect x="40" y="7" width="2" height="1"/><rect height="1" x="64" y="7" width="1"/><rect width="1" height="1" x="71" y="7"/><rect x="38" y="8" width="1" height="1"/><rect height="1" x="65" y="8" width="1"/><rect x="70" y="8" width="1" height="1"/><rect height="2" x="31" y="9" width="1"/><rect x="37" y="9" width="1" height="1"/><rect height="1" x="66" y="9" width="2"/><rect y="9" width="1" height="1" x="69"/><rect width="1" height="1" x="36" y="10"/><rect height="1" x="68" y="10" width="1"/><rect x="32" y="11" width="4" height="1"/><rect x="69" y="11" width="1" height="1"/><rect width="1" height="1" x="34" y="12"/><rect y="12" width="1" height="1" x="70"/><rect x="33" y="13" width="1" height="1"/><rect height="1" x="71" y="13" width="1"/><rect height="2" x="32" y="14" width="1"/><rect width="1" height="2" x="72" y="14"/><rect width="43" height="1" x="31" y="15"/><rect x="31" y="16" width="1" height="18"/><rect x="73" y="16" width="1" height="18"/><rect x="28" y="19" width="7" height="7"/><rect height="1" x="38" y="19" width="1"/><rect x="40" y="19" width="1" height="1"/><rect height="1" x="44" y="19" width="33"/><rect y="20" width="1" height="6" x="35"/><rect x="39" y="20" width="1" height="1"/><rect x="41" y="20" width="1" height="1"/><rect x="45" y="20" width="32" height="1"/><rect y="21" width="1" height="5" x="36"/><rect height="1" x="40" y="21" width="1"/><rect x="42" y="21" width="1" height="1"/><rect x="46" y="21" width="31" height="1"/><rect y="22" width="1" height="4" x="37"/><rect y="22" width="1" height="1" x="41"/><rect y="22" width="1" height="1" x="43"/><rect x="47" y="22" width="30" height="1"/><rect y="23" width="1" height="3" x="38"/><rect height="1" x="42" y="23" width="1"/><rect x="44" y="23" width="1" height="1"/><rect y="23" width="29" height="1" x="48"/><rect y="24" width="1" height="2" x="39"/><rect x="43" y="24" width="1" height="1"/><rect width="1" height="1" x="45" y="24"/><rect x="49" y="24" width="28" height="1"/><rect x="40" y="25" width="1" height="1"/><rect x="44" y="25" width="1" height="1"/><rect y="25" width="1" height="1" x="46"/><rect y="25" width="27" height="1" x="50"/><rect x="45" y="29" width="15" height="1"/><rect height="1" x="32" y="33" width="42"/><rect x="42" y="34" width="1" height="1"/><rect x="45" y="34" width="1" height="1"/><rect x="56" y="34" width="1" height="1"/><rect y="34" width="1" height="7" x="59"/><rect width="1" height="5" x="41" y="35"/><rect height="1" x="46" y="35" width="2"/><rect height="1" x="54" y="35" width="2"/><rect x="47" y="36" width="1" height="1"/><rect x="53" y="36" width="1" height="2"/><rect y="37" width="1" height="1" x="48"/><rect x="49" y="38" width="1" height="6"/><rect x="51" y="38" width="2" height="1"/><rect x="37" y="39" width="5" height="1"/><rect width="1" height="2" x="50" y="39"/><rect x="36" y="40" width="2" height="1"/><rect height="1" x="60" y="40" width="5"/><rect x="36" y="41" width="1" height="20"/><rect height="20" x="65" y="41" width="1"/><rect height="14" x="42" y="47" width="1"/><rect y="47" width="1" height="14" x="57"/></g><g fill="#cfcfcf"><rect width="5" height="7" x="33" y="2"/><rect x="66" y="2" width="5" height="6"/><rect width="7" height="5" x="32" y="3"/><rect x="65" y="3" width="7" height="4"/><rect x="31" y="4" width="8" height="4"/><rect x="64" y="4" width="8" height="3"/><rect height="10" x="47" y="5" width="12"/><rect width="20" height="9" x="43" y="6"/><rect x="42" y="7" width="22" height="8"/><rect height="1" x="65" y="7" width="6"/><rect height="1" x="31" y="8" width="7"/><rect width="26" height="7" x="39" y="8"/><rect width="4" height="1" x="66" y="8"/><rect x="32" y="9" width="5" height="1"/><rect height="6" x="38" y="9" width="28"/><rect height="1" x="68" y="9" width="1"/><rect x="32" y="10" width="4" height="1"/><rect width="31" height="5" x="37" y="10"/><rect x="36" y="11" width="33" height="4"/><rect y="12" width="35" height="3" x="35"/><rect y="13" width="37" height="2" x="34"/><rect x="33" y="14" width="39" height="1"/></g><g fill="#b3b3b3"><rect x="32" y="16" width="41" height="3"/><rect height="3" x="32" y="26" width="41"/><rect width="13" height="4" x="32" y="29"/><rect height="4" x="60" y="29" width="13"/><rect width="28" height="3" x="45" y="30"/><rect height="1" x="46" y="34" width="10"/><rect x="48" y="35" width="6" height="1"/><rect x="48" y="36" width="5" height="1"/><rect x="49" y="37" width="4" height="1"/><rect height="1" x="50" y="38" width="1"/></g></svg>