<?xml version="1.0" encoding="UTF-8"?><svg xmlns="http://www.w3.org/2000/svg" version="1.2" baseProfile="tiny" viewBox="0 0 100 100" width="100px" height="100px"><g fill="#000000"><rect x="33" y="1" width="5" height="1"/><rect x="66" y="1" width="5" height="1"/><rect width="1" height="1" x="32" y="2"/><rect x="38" y="2" width="1" height="1"/><rect x="65" y="2" width="1" height="1"/><rect y="2" width="1" height="1" x="71"/><rect width="1" height="1" x="31" y="3"/><rect height="5" x="39" y="3" width="1"/><rect height="1" x="64" y="3" width="1"/><rect width="1" height="4" x="72" y="3"/><rect x="30" y="4" width="1" height="5"/><rect width="12" height="1" x="47" y="4"/><rect x="63" y="4" width="1" height="3"/><rect height="1" x="43" y="5" width="4"/><rect y="5" width="5" height="1" x="59"/><rect x="42" y="6" width="1" height="1"/><rect y="7" width="2" height="1" x="40"/><rect height="1" x="64" y="7" width="1"/><rect height="1" x="71" y="7" width="1"/><rect x="38" y="8" width="1" height="1"/><rect y="8" width="1" height="1" x="65"/><rect x="70" y="8" width="1" height="1"/><rect x="31" y="9" width="1" height="2"/><rect x="37" y="9" width="1" height="1"/><rect x="66" y="9" width="2" height="1"/><rect x="69" y="9" width="1" height="1"/><rect x="36" y="10" width="1" height="1"/><rect x="68" y="10" width="1" height="1"/><rect width="4" height="1" x="32" y="11"/><rect width="1" height="1" x="69" y="11"/><rect y="12" width="1" height="1" x="34"/><rect x="70" y="12" width="1" height="1"/><rect height="1" x="33" y="13" width="1"/><rect y="13" width="1" height="1" x="71"/><rect width="1" height="2" x="32" y="14"/><rect y="14" width="1" height="2" x="72"/><rect x="31" y="15" width="43" height="1"/><rect height="18" x="31" y="16" width="1"/><rect height="18" x="73" y="16" width="1"/><rect y="19" width="7" height="7" x="28"/><rect x="38" y="19" width="1" height="1"/><rect x="40" y="19" width="1" height="1"/><rect width="33" height="1" x="44" y="19"/><rect x="35" y="20" width="1" height="6"/><rect height="1" x="39" y="20" width="1"/><rect x="41" y="20" width="1" height="1"/><rect x="45" y="20" width="32" height="1"/><rect y="21" width="1" height="5" x="36"/><rect y="21" width="1" height="1" x="40"/><rect width="1" height="1" x="42" y="21"/><rect width="31" height="1" x="46" y="21"/><rect height="4" x="37" y="22" width="1"/><rect height="1" x="41" y="22" width="1"/><rect height="1" x="43" y="22" width="1"/><rect width="30" height="1" x="47" y="22"/><rect x="38" y="23" width="1" height="3"/><rect x="42" y="23" width="1" height="1"/><rect y="23" width="1" height="1" x="44"/><rect height="1" x="48" y="23" width="29"/><rect height="2" x="39" y="24" width="1"/><rect height="1" x="43" y="24" width="1"/><rect y="24" width="1" height="1" x="45"/><rect height="1" x="49" y="24" width="28"/><rect height="1" x="40" y="25" width="1"/><rect y="25" width="1" height="1" x="44"/><rect x="46" y="25" width="1" height="1"/><rect y="25" width="27" height="1" x="50"/><rect width="15" height="1" x="45" y="29"/><rect y="33" width="42" height="1" x="32"/><rect width="1" height="1" x="42" y="34"/><rect width="1" height="1" x="45" y="34"/><rect height="1" x="56" y="34" width="1"/><rect height="7" x="59" y="34" width="1"/><rect x="41" y="35" width="1" height="5"/><rect x="46" y="35" width="2" height="1"/><rect x="54" y="35" width="2" height="1"/><rect x="47" y="36" width="1" height="1"/><rect y="36" width="1" height="2" x="53"/><rect width="1" height="1" x="48" y="37"/><rect y="38" width="1" height="6" x="49"/><rect x="51" y="38" width="2" height="1"/><rect x="37" y="39" width="5" height="1"/><rect y="39" width="1" height="2" x="50"/><rect x="36" y="40" width="2" height="1"/><rect height="1" x="60" y="40" width="5"/><rect width="1" height="20" x="36" y="41"/><rect x="65" y="41" width="1" height="20"/><rect x="42" y="47" width="1" height="14"/><rect height="14" x="57" y="47" width="1"/></g><g fill="#cfcfcf"><rect height="7" x="33" y="2" width="5"/><rect width="5" height="6" x="66" y="2"/><rect x="32" y="3" width="7" height="5"/><rect x="65" y="3" width="7" height="4"/><rect y="4" width="8" height="4" x="31"/><rect x="64" y="4" width="8" height="3"/><rect x="47" y="5" width="12" height="10"/><rect width="20" height="9" x="43" y="6"/><rect height="8" x="42" y="7" width="22"/><rect x="65" y="7" width="6" height="1"/><rect width="7" height="1" x="31" y="8"/><rect y="8" width="26" height="7" x="39"/><rect height="1" x="66" y="8" width="4"/><rect x="32" y="9" width="5" height="1"/><rect height="6" x="38" y="9" width="28"/><rect x="68" y="9" width="1" height="1"/><rect height="1" x="32" y="10" width="4"/><rect x="37" y="10" width="31" height="5"/><rect width="33" height="4" x="36" y="11"/><rect x="35" y="12" width="35" height="3"/><rect x="34" y="13" width="37" height="2"/><rect x="33" y="14" width="39" height="1"/></g><g fill="#b3b3b3"><rect x="32" y="16" width="41" height="3"/><rect x="32" y="26" width="41" height="3"/><rect width="13" height="4" x="32" y="29"/><rect height="4" x="60" y="29" width="13"/><rect x="45" y="30" width="28" height="3"/><rect height="1" x="46" y="34" width="10"/><rect x="48" y="35" width="6" height="1"/><rect width="5" height="1" x="48" y="36"/><rect x="49" y="37" width="4" height="1"/><rect x="50" y="38" width="1" height="1"/></g><g fill="#ebebeb"><rect width="3" height="1" x="35" y="19"/><rect x="39" y="19" width="1" height="1"/><rect x="41" y="19" width="3" height="1"/><rect y="20" width="3" height="1" x="36"/><rect x="40" y="20" width="1" height="1"/><rect x="42" y="20" width="3" height="1"/><rect x="37" y="21" width="3" height="1"/><rect width="1" height="1" x="41" y="21"/><rect width="3" height="1" x="43" y="21"/><rect x="38" y="22" width="3" height="1"/><rect y="22" width="1" height="1" x="42"/><rect x="44" y="22" width="3" height="1"/><rect width="3" height="1" x="39" y="23"/><rect height="1" x="43" y="23" width="1"/><rect x="45" y="23" width="3" height="1"/><rect height="1" x="40" y="24" width="3"/><rect x="44" y="24" width="1" height="1"/><rect width="3" height="1" x="46" y="24"/><rect height="1" x="41" y="25" width="3"/><rect x="45" y="25" width="1" height="1"/><rect height="1" x="47" y="25" width="3"/></g><g fill="#4b4b49"><rect y="34" width="2" height="27" x="43"/><rect height="13" x="57" y="34" width="2"/><rect x="42" y="35" width="4" height="12"/><rect x="56" y="35" width="3" height="12"/><rect width="1" height="25" x="46" y="36"/><rect y="36" width="5" height="11" x="54"/><rect height="24" x="47" y="37" width="1"/><rect width="1" height="23" x="48" y="38"/><rect x="53" y="38" width="6" height="9"/><rect height="8" x="51" y="39" width="8"/><rect x="38" y="40" width="11" height="7"/><rect x="37" y="41" width="12" height="6"/><rect x="50" y="41" width="15" height="6"/><rect x="49" y="44" width="16" height="3"/><rect y="47" width="5" height="14" x="37"/><rect x="45" y="47" width="12" height="14"/><rect x="58" y="47" width="7" height="14"/></g><rect y="61" width="92" height="38" x="4" fill="#797979"/></svg>